# xmcd CD database file
#
# Track frame offsets:
#	150
#	22925
#	39530
#	55311
#	76930
#	98253
#	121353
#	143473
#
# Disc length: 2110 seconds
#
# Revision: 0
# Processed by: cddbd v1.5.2PL0 Copyright (c) Steve Scherf et al.
# Submitted via: CDex 1.70beta2
#
DISCID=53083c08
DTITLE=Santiago Cerón - Navegando En Sabor
DYEAR=1900
DGENRE=Salsa
TTITLE0=Don Lengua
TTITLE1=Cristiana
TTITLE2=Vacío
TTITLE3=El Diablo
TTITLE4=Si pudiera Mirar
TTITLE5=Raza De Esclavo
TTITLE6=No Hay Tal Cosa
TTITLE7=Perdon Y Olvido
EXTD=
EXTT0=
EXTT1=
EXTT2=
EXTT3=
EXTT4=
EXTT5=
EXTT6=
EXTT7=
PLAYORDER=
